<?xml version="1.0" encoding="UTF-8" standalone="no"?>
<!-- Uploaded to: SVG Repo, www.svgrepo.com, Generator: SVG Repo Mixer Tools -->

<svg
   fill="#ffffff"
   height="800px"
   width="800px"
   version="1.1"
   id="Capa_1"
   viewBox="0 0 512 512"
   xml:space="preserve"
   sodipodi:docname="next.svg"
   inkscape:version="1.3.2 (091e20ef0f, 2023-11-25, custom)"
   xmlns:inkscape="http://www.inkscape.org/namespaces/inkscape"
   xmlns:sodipodi="http://sodipodi.sourceforge.net/DTD/sodipodi-0.dtd"
   xmlns="http://www.w3.org/2000/svg"
   xmlns:svg="http://www.w3.org/2000/svg"><defs
   id="defs1" /><sodipodi:namedview
   id="namedview1"
   pagecolor="#ffffff"
   bordercolor="#000000"
   borderopacity="0.25"
   inkscape:showpageshadow="2"
   inkscape:pageopacity="0.0"
   inkscape:pagecheckerboard="0"
   inkscape:deskcolor="#d1d1d1"
   inkscape:zoom="0.2628125"
   inkscape:cx="350.05945"
   inkscape:cy="312.00951"
   inkscape:window-width="936"
   inkscape:window-height="496"
   inkscape:window-x="0"
   inkscape:window-y="0"
   inkscape:window-maximized="1"
   inkscape:current-layer="Capa_1" />
<path
   d="M256,0C114.615,0,0,114.615,0,256s114.615,256,256,256s256-114.615,256-256S397.385,0,256,0z M280.875,269.313l-96,64  C182.199,335.094,179.102,336,176,336c-2.59,0-5.184-0.625-7.551-1.891C163.246,331.32,160,325.898,160,320V192  c0-5.898,3.246-11.32,8.449-14.109c5.203-2.773,11.516-2.484,16.426,0.797l96,64C285.328,245.656,288,250.648,288,256  S285.328,266.344,280.875,269.313z M368,320c0,8.836-7.164,16-16,16h-16c-8.836,0-16-7.164-16-16V192c0-8.836,7.164-16,16-16h16  c8.836,0,16,7.164,16,16V320z"
   id="path1"
   style="fill:#ffffff" />
</svg>
