<?xml version="1.0" encoding="UTF-8" standalone="no"?>
<!-- Uploaded to: SVG Repo, www.svgrepo.com, Generator: SVG Repo Mixer Tools -->

<svg
   fill="#ffffff"
   height="800px"
   width="800px"
   version="1.1"
   id="Capa_1"
   viewBox="0 0 512 512"
   xml:space="preserve"
   sodipodi:docname="next.svg"
   inkscape:version="1.3.2 (091e20ef0f, 2023-11-25, custom)"
   xmlns:inkscape="http://www.inkscape.org/namespaces/inkscape"
   xmlns:sodipodi="http://sodipodi.sourceforge.net/DTD/sodipodi-0.dtd"
   xmlns="http://www.w3.org/2000/svg"
   xmlns:svg="http://www.w3.org/2000/svg"><defs
   id="defs1" /><sodipodi:namedview
   id="namedview1"
   pagecolor="#ffffff"
   bordercolor="#000000"
   borderopacity="0.25"
   inkscape:showpageshadow="2"
   inkscape:pageopacity="0.0"
   inkscape:pagecheckerboard="0"
   inkscape:deskcolor="#d1d1d1"
   inkscape:zoom="0.2628125"
   inkscape:cx="350.05945"
   inkscape:cy="312.00951"
   inkscape:window-width="936"
   inkscape:window-height="496"
   inkscape:window-x="0"
   inkscape:window-y="0"
   inkscape:window-maximized="1"
   inkscape:current-layer="Capa_1" />
<path
   d="M 256,512 C 397.385,512 512,397.385 512,256 512,114.615 397.385,0 256,0 114.615,0 0,114.615 0,256 0,397.385 114.615,512 256,512 Z m -24.875,-269.313 96,-64 C 329.801,176.906 332.898,176 336,176 c 2.59,0 5.184,0.625 7.551,1.891 5.203,2.789 8.449,8.211 8.449,14.109 v 128 c 0,5.898 -3.246,11.32 -8.449,14.109 -5.203,2.773 -11.516,2.484 -16.426,-0.797 l -96,-64 C 226.672,266.344 224,261.352 224,256 c 0,-5.352 2.672,-10.344 7.125,-13.313 z M 144,192 c 0,-8.836 7.164,-16 16,-16 h 16 c 8.836,0 16,7.164 16,16 v 128 c 0,8.836 -7.164,16 -16,16 h -16 c -8.836,0 -16,-7.164 -16,-16 z"
   id="path1"
   style="fill:#ffffff" />
</svg>
